# AST/ASF file generated using VICON BodyLanguage
# -----------------------------------------------
:version 1.10
:name VICON
:units
  mass 1.0
  length 0.45
  angle deg
:documentation
   .ast/.asf automatically generated from VICON data using
   VICON BodyBuilder and BodyLanguage model FoxedUp or BRILLIANT.MOD
:root
   order TX TY TZ RX RY RZ
   axis XYZ
   position 0 0 0  
   orientation 0 0 0 
:bonedata
  begin
     id 1 
     name lhipjoint
     direction 0.567149 -0.783011 0.255413 
     length 2.28399 
     axis 0 0 0  XYZ
  end
  begin
     id 2 
     name lfemur
     direction 0.34202 -0.939693 0  
     length 7.34031  
     axis 0 0 20  XYZ
    dof rx ry rz
    limits (-160.0 20.0)
           (-70.0 70.0)
           (-60.0 70.0)
  end
  begin
     id 3 
     name ltibia
     direction 0.34202 -0.939693 0   
     length 6.9833   
     axis 0 0 20   XYZ
    dof rx
    limits (-10.0 170.0)
  end
  begin
     id 4 
     name lfoot
     direction 0.136498 -0.375025 0.91691   
     length 2.33665   
     axis -90 7.62852e-016 20   XYZ
    dof rx rz
    limits (-45.0 90.0)
           (-70.0 20.0)
  end
  begin
     id 5 
     name ltoes
     direction 1.5367e-011 -4.21617e-011 1   
     length 1.15039   
     axis -90 7.62852e-016 20   XYZ
    dof rx
    limits (-90.0 20.0)
  end
  begin
     id 6 
     name rhipjoint
     direction -0.602854 -0.758518 0.247423   
     length 2.35775  
     axis 0 0 0  XYZ 
  end
  begin
     id 7 
     name rfemur
     direction -0.34202 -0.939693 0   
     length 7.43932   
     axis 0 0 -20   XYZ
    dof rx ry rz
    limits (-160.0 20.0)
           (-70.0 70.0)
           (-70.0 60.0)
  end
  begin
     id 8 
     name rtibia
     direction -0.34202 -0.939693 0   
     length 7.11893   
     axis 0 0 -20   XYZ
    dof rx
    limits (-10.0 170.0)
 end
 begin
     id 9 
     name rfoot
     direction -0.131771 -0.362037 0.922803   
     length 2.53019  
     axis -90 -7.62852e-016 -20   XYZ
    dof rx rz
    limits (-45.0 90.0)
           (-20.0 70.0)
  end
  begin
     id 10 
     name rtoes
     direction -1.53733e-011 -4.21932e-011 1   
     length 1.24596   
     axis -90 -7.62852e-016 -20   XYZ
    dof rx
    limits (-90.0 20.0)
  end
  begin
     id 11 
     name lowerback
     direction 0.0235427 0.999023 -0.0374125   
     length 2.21768   
     axis 0 0 0   XYZ
    dof rx ry rz
    limits (-20.0 45.0)
           (-30.0 30.0)
           (-30.0 30.0)
  end
  begin
     id 12 
     name upperback
     direction 0.0302156 0.996818 -0.073759   
     length 2.20352   
     axis 0 0 0   XYZ
    dof rx ry rz
    limits (-20.0 45.0)
           (-30.0 30.0)
           (-30.0 30.0)
  end
  begin
     id 13 
     name thorax
     direction 0.0187169 0.998235 -0.0563532   
     length 2.22103   
     axis 0 0 0   XYZ
    dof rx ry rz
    limits (-20.0 45.0)
           (-30.0 30.0)
           (-30.0 30.0)
  end
  begin
     id 14 
     name lowerneck
     direction -0.119528 0.987423 0.103481   
     length 1.72948   
     axis 0 0 0   XYZ
    dof rx ry rz
    limits (-20.0 45.0)
           (-30.0 30.0)
           (-30.0 30.0)
  end
  begin
     id 15 
     name upperneck
     direction 0.248049 0.963095 -0.104496   
     length 1.74979   
     axis 0 0 0   XYZ
    dof rx ry rz
    limits (-20.0 45.0)
           (-30.0 30.0)
           (-30.0 30.0)
  end
  begin
     id 16
     name head
     direction 0.0903589 0.994284 -0.056876  
     length 1.78268  
     axis 0 0 0   XYZ
    dof rx ry rz
    limits (-20.0 45.0)
           (-30.0 30.0)
           (-30.0 30.0)
  end
  begin
     id 17 
     name lclavicle
     direction 0.946008 0.242039 -0.215608  
     length 3.80783  
     axis 0 0 0   XYZ
    dof ry rz
    limits (-20.0 10.0)
           (0.0 20.0)
  end
  begin
     id 18 
     name lhumerus
     direction 1 -4.48991e-011 -2.25695e-027   
     length 4.83125   
     axis 180 -30 -90   XYZ
    dof rx ry rz
    limits (-60.0 90.0)
           (-90.0 90.0)
           (-90.0 90.0)
  end
  begin
     id 19
     name lradius
     direction 0.999991 0.00366712 -0.00211721   
     length 3.00391   
     axis 180 -30 -90   XYZ
    dof rx
    limits (-10.0 170.0)
  end
  begin
     id 20
     name lwrist
     direction 0.999991 0.00393016 -0.00141978   
     length 1.50195   
     axis -1.00488e-014 90 90   XYZ
    dof ry
    limits (-180.0 0.0)
 end
  begin
     id 21 
     name lhand
     direction 1 -4.49123e-011 2.72098e-026   
     length 1.2717   
     axis -1.73687e-014 90 90   XYZ
    dof rx rz
    limits (-90.0 90.0)
           (-45.0 45.0)
  end
  begin
     id 22 
     name lfingers
     direction 1 -4.48678e-011 5.4479e-026   
     length 1.02528   
     axis -3.47372e-014 90 90   XYZ
    dof rx
    limits (0.0 90.0)
  end
  begin
     id 23
     name lthumb
     direction 0.707107 -6.34851e-011 0.707107   
     length 1.4721   
     axis -90 45 -1.62303e-014   XYZ
    dof rx rz
    limits (-45.0 45.0)
           (-45.0 45.0)
  end
  begin
     id 24 
     name rclavicle
     direction -0.981723 0.189447 -0.0181673   
     length 3.74989  
     axis 0 0 0   XYZ 
    dof ry rz
    limits (-10.0 20.0)
           (-20.0 0.0)
  end
  begin
     id 25 
     name rhumerus
     direction -1 -4.48985e-011 2.38206e-027  
     length 4.61118   
     axis 180 30 90   XYZ
    dof rx ry rz
    limits (-90.0 60.0)
           (-90.0 90.0)
           (-90.0 90.0)
  end
  begin
     id 26 
     name rradius
     direction -1 -4.48977e-011 7.41019e-027   
     length 2.91491   
     axis 180 30 90   XYZ
    dof rx
    limits (-10.0 170.0)
  end
  begin
     id 27 
     name rwrist
     direction -1 -4.48549e-011 1.3624e-026   
     length 1.45745   
     axis -1.00488e-014 -90 -90   XYZ
    dof ry
    limits (-180.0 0.0)
  end
  begin
     id 28
     name rhand
     direction -1 -4.49107e-011 2.72109e-026   
     length 1.30769   
     axis -1.73687e-014 -90 -90   XYZ
    dof rx rz
    limits (-90.0 90.0)
           (-45.0 45.0)
  end
  begin
     id 29
     name rfingers
     direction -1 -4.48919e-011 5.44468e-026   
     length 1.05429   
     axis -3.47372e-014 -90 -90   XYZ
    dof rx
    limits (0.0 90.0)
  end
  begin
     id 30
     name rthumb
     direction -0.707107 -6.35315e-011 0.707107   
     length 1.51376   
     axis -90 -45 1.62303e-014   XYZ
    dof rx rz
    limits (-45.0 45.0)
           (-45.0 45.0)
  end
:hierarchy
  begin
    root lhipjoint rhipjoint lowerback
    lhipjoint lfemur
    lfemur ltibia
    ltibia lfoot
    lfoot ltoes
    rhipjoint rfemur
    rfemur rtibia
    rtibia rfoot
    rfoot rtoes
    lowerback upperback
    upperback thorax
    thorax lowerneck lclavicle rclavicle
    lowerneck upperneck
    upperneck head
    lclavicle lhumerus
    lhumerus lradius
    lradius lwrist
    lwrist lhand lthumb
    lhand lfingers
    rclavicle rhumerus
    rhumerus rradius
    rradius rwrist
    rwrist rhand rthumb
    rhand rfingers
  end

#!OML:ASF X:\für Bonn\!DataBase\2005_08_11_Bastian_Final\c3d\Bastian.ASF
:FULLY-SPECIFIED
:DEGREES
16
root 6.38128 17.3362 -4.21757 224.934 87.6847 -121.141
lowerback 13.765 -0.415117 -4.18094
upperback 11.7445 -0.144027 -0.0614857
thorax 4.79793 -0.0176023 2.31946
lowerneck 0.417802 -7.91893 -7.39172
upperneck 5.10976 -11.2391 16.2681
head 2.79216 -5.35363 5.78573
rclavicle -8.34896e-015 4.37326e-015
rhumerus -26.595 8.59396 -83.7826
rradius 36.8506
rwrist -3.63577
rhand -26.1679 -2.02648
rfingers 7.12502
rthumb 0.383576 -32.0059
lclavicle -8.34896e-015 4.37326e-015
lhumerus -8.44524 -15.3075 82.8172
lradius 38.6958
lwrist 25.4345
lhand -15.0653 -9.63435
lfingers 7.12502
lthumb 11.1018 20.052
rfemur -15.4392 0.332922 20.8351
rtibia 43.9987
rfoot -12.9308 -0.216798
rtoes -10.7774
lfemur 0.136252 6.99709 -19.1844
ltibia 28.8714
lfoot -6.21918 -8.38164
ltoes -4.88704
17
root 6.44293 17.3444 -4.21831 223.333 87.7141 -122.789
lowerback 13.9983 -0.44981 -4.22143
upperback 11.8201 -0.189714 -0.0419882
thorax 4.76205 -0.0390108 2.36797
lowerneck 0.476524 -7.89796 -7.44118
upperneck 4.90382 -11.1915 16.2984
head 2.72068 -5.34229 5.81077
rclavicle 1.98785e-015 6.36111e-015
rhumerus -26.2937 8.84751 -83.6563
rradius 36.8061
rwrist -3.61906
rhand -26.3384 -2.06453
rfingers 7.12502
rthumb 0.218873 -32.0442
lclavicle 1.98785e-015 6.36111e-015
lhumerus -8.01936 -15.5485 82.8367
lradius 39.116
lwrist 25.4169
lhand -14.9258 -10.0672
lfingers 7.12502
lthumb 11.2363 19.6119
rfemur -15.5378 0.785469 20.743
rtibia 42.8219
rfoot -13.1456 -0.286042
rtoes -11.0557
lfemur 0.418336 7.03857 -19.2261
ltibia 28.659
lfoot -6.28175 -8.46302
ltoes -5.01869
18
root 6.50252 17.352 -4.21895 221.664 87.7312 -124.51
lowerback 14.2747 -0.473237 -4.23316
upperback 11.865 -0.22273 -0.0176337
thorax 4.66807 -0.0514655 2.40452
lowerneck 0.59028 -7.89516 -7.49375
upperneck 4.68155 -11.1676 16.3136
head 2.63739 -5.34605 5.83292
rclavicle -5.56597e-015 3.18055e-015
rhumerus -26.0057 9.01451 -83.5274
rradius 36.7284
rwrist -3.60931
rhand -26.5039 -2.09765
rfingers 7.12502
rthumb 0.0590981 -32.0774
lclavicle -5.56597e-015 3.18055e-015
lhumerus -7.65174 -15.8543 82.8725
lradius 39.5126
lwrist 25.3526
lhand -14.7977 -10.4538
lfingers 7.12502
lthumb 11.3598 19.2185
rfemur -15.6596 1.19884 20.6659
rtibia 41.7632
rfoot -13.3938 -0.460578
rtoes -11.6786
lfemur 0.686787 7.09815 -19.2485
ltibia 28.4363
lfoot -6.2988 -8.554
ltoes -4.75631
19
root 6.56073 17.3589 -4.21921 220.813 87.7159 -125.415
lowerback 14.5405 -0.508328 -4.21631
upperback 11.9237 -0.266938 0.0313757
thorax 4.59567 -0.0689914 2.45247
lowerneck 0.686235 -7.88141 -7.57002
upperneck 4.454 -11.1282 16.3269
head 2.55493 -5.34216 5.85853
rclavicle -9.93923e-016 2.38542e-015
rhumerus -25.7082 9.34559 -83.3938
rradius 36.6533
rwrist -3.59299
rhand -26.7073 -2.14072
rfingers 7.12502
rthumb -0.137433 -32.1204
lclavicle -9.93923e-016 2.38542e-015
lhumerus -7.29613 -16.106 82.925
lradius 39.8999
lwrist 25.2446
lhand -14.7461 -10.6614
lfingers 7.12502
lthumb 11.4096 19.0082
rfemur -15.7987 1.55418 20.6487
rtibia 40.8027
rfoot -13.5751 -0.676186
rtoes -12.5367
lfemur 0.936276 7.10483 -19.2316
ltibia 28.2367
lfoot -6.29928 -8.6216
ltoes -4.51335
